<?xml version="1.0" encoding="iso-8859-1"?>
<!-- Generator: Adobe Illustrator 18.1.1, SVG Export Plug-In . SVG Version: 6.00 Build 0)  -->
<svg version="1.1" id="Capa_1" xmlns="http://www.w3.org/2000/svg" xmlns:xlink="http://www.w3.org/1999/xlink" x="0px" y="0px"
	 viewBox="0 0 361.334 361.334" style="enable-background:new 0 0 361.334 361.334;" xml:space="preserve">
<g>
	<path d="M258.146,0H103.188c-6.418,0-11.621,5.205-11.621,11.621V133.02h178.199V11.621C269.767,5.205,264.561,0,258.146,0z
		 M124.67,85.504c0,6.078-4.926,11.006-11.005,11.006v-60c6.079,0,11.005,4.928,11.005,11.006V85.504z"/>
	<path d="M91.567,328.377c0,6.42,5.203,11.623,11.621,11.623h154.957c6.416,0,11.621-5.203,11.621-11.623V149.154H91.567V328.377z
		 M235.834,251.797c0-3.59,2.91-6.5,6.5-6.5c3.59,0,6.5,2.91,6.5,6.5v10.75c0,3.59-2.91,6.5-6.5,6.5c-3.59,0-6.5-2.91-6.5-6.5
		V251.797z M235.834,283.191c0-3.59,2.91-6.5,6.5-6.5c3.59,0,6.5,2.91,6.5,6.5v28.605c0,3.59-2.91,6.5-6.5,6.5
		c-3.59,0-6.5-2.91-6.5-6.5V283.191z M113.665,176.77c6.079,0,11.005,4.926,11.005,11.004v37.99c0,6.078-4.926,11.006-11.005,11.006
		V176.77z"/>
	<path d="M251.334,345h-138c-0.553,0-1,0.447-1,1v14.334c0,0.551,0.447,1,1,1h14.333c0.088,0,0.176-0.012,0.261-0.035l26.371-7.133
		h54.411l28.045,7.137c0.08,0.02,0.163,0.031,0.246,0.031h14.333c0.553,0,1-0.449,1-1V346C252.334,345.447,251.887,345,251.334,345z
		"/>
</g>
<g>
</g>
<g>
</g>
<g>
</g>
<g>
</g>
<g>
</g>
<g>
</g>
<g>
</g>
<g>
</g>
<g>
</g>
<g>
</g>
<g>
</g>
<g>
</g>
<g>
</g>
<g>
</g>
<g>
</g>
</svg>
